# xmcd
#
# Track frame offsets: 
#        183
#        12320
#        22235
#        33013
#        45700
#        53490
#        64575
#        74193
#        84373
#        95233
#        105320
#        115450
#        127913
#        139878
#        148058
#        158493
#        167460
#        178895
#
# Disc length: 2515 seconds
#
# Revision: 2
# Processed by: cddbd v1.4PL0 Copyright (c) Steve Scherf et al.
# Submitted via: ExactAudioCopy v0.90b2
#
DISCID=f609d112
DTITLE=Johnny Cash - 18 Golden Hits
DYEAR=1988
DGENRE=Country
TTITLE0=You're The Nearest Thing To Heaven
TTITLE1=Rock Island Line
TTITLE2=Cold Cold Heart
TTITLE3=Folsom Prison Blues
TTITLE4=Hey Good Lookin'
TTITLE5=I Love You Because
TTITLE6=Just About Time
TTITLE7=Straight A's In Love
TTITLE8=I Just Thought You'd Like To Know
TTITLE9=Goodbye Little Darlin'
TTITLE10=I Could Never Be Ashamed Of You
TTITLE11=Next In Line
TTITLE12=Port Of Lonely Hearts
TTITLE13=Sugartime
TTITLE14=There You Go
TTITLE15=Two Timin' Woman
TTITLE16=Big River
TTITLE17=Ballad Of A Teenage Queen
EXTD=
EXTT0=
EXTT1=
EXTT2=
EXTT3=
EXTT4=
EXTT5=
EXTT6=
EXTT7=
EXTT8=
EXTT9=
EXTT10=
EXTT11=
EXTT12=
EXTT13=
EXTT14=
EXTT15=
EXTT16=
EXTT17=
PLAYORDER=
